<svg data-v-fde0c5aa="" xmlns="http://www.w3.org/2000/svg" viewBox="0 0 300 300" class="iconLeftSlogan"><!----><defs data-v-fde0c5aa=""><!----></defs><rect data-v-fde0c5aa="" fill="transparent" x="0" y="0" width="300px" height="300px" class="logo-background-square"></rect><defs data-v-fde0c5aa=""><!----></defs><g data-v-fde0c5aa="" id="4b683854-ea54-4179-b015-d5786af74da0" fill="#000000" transform="matrix(2.053143432781362,0,0,2.053143432781362,126.21716450428895,120.19743162998438)"><path d="M2.88 3.74L2.88 7.68L4.60 7.68Q4.89 7.68 5.16 7.50Q5.43 7.33 5.67 7L5.67 7Q5.87 6.69 5.99 6.36Q6.11 6.03 6.11 5.71L6.11 5.71Q6.11 4.93 5.66 4.33L5.66 4.33Q5.19 3.73 4.44 3.73L4.44 3.73L2.88 3.74ZM2.88 8.40L2.88 12.30L3.62 12.30L3.62 13.01L0.46 13.01L0.46 12.30L1.15 12.31L1.15 3.74L0.46 3.74L0.46 3.04L4.64 3.04Q5.28 3.04 5.84 3.20Q6.39 3.37 6.84 3.68L6.84 3.68Q7.32 4.05 7.58 4.56Q7.85 5.07 7.85 5.70L7.85 5.70Q7.85 6.17 7.67 6.60Q7.49 7.03 7.15 7.40L7.15 7.40Q6.86 7.71 6.48 7.94Q6.11 8.18 5.70 8.29L5.70 8.29Q5.97 9.20 6.58 10.19Q7.20 11.18 8.16 12.30L8.16 12.30L8.89 12.30L8.89 13.01L6.68 13.01Q5.84 11.91 5.18 10.76Q4.52 9.61 4.01 8.40L4.01 8.40L2.88 8.40ZM12.20 6.93L11.73 6.93Q11.92 7.42 12.09 7.86Q12.26 8.30 12.43 8.74Q12.60 9.17 12.77 9.62Q12.95 10.06 13.14 10.56L13.14 10.56Q13.32 10.09 13.49 9.65Q13.66 9.20 13.83 8.76Q14 8.31 14.17 7.86Q14.34 7.41 14.53 6.93L14.53 6.93L14.04 6.93L14.04 6.27L15.96 6.27L15.96 6.93L15.24 6.93Q14.49 8.89 13.76 10.83Q13.02 12.78 12.28 14.74L12.28 14.74Q11.71 16.25 10.58 16.25L10.58 16.25Q10.37 16.25 10.08 16.19L10.08 16.19L10.09 14.92Q10.59 15.17 10.86 15.17L10.86 15.17Q11.38 15.17 11.68 14.48L11.68 14.48L11.67 14.49Q11.84 14.02 12.00 13.59Q12.16 13.15 12.33 12.69L12.33 12.69Q11.76 11.22 11.22 9.81Q10.68 8.39 10.11 6.93L10.11 6.93L9.39 6.93L9.39 6.27L12.20 6.27L12.20 6.93ZM18.85 7.43L18.85 11.82Q19.59 12.50 20.23 12.50L20.23 12.50Q20.43 12.50 20.62 12.37L20.62 12.37Q21.59 11.68 21.59 9.60L21.59 9.60Q21.59 7.32 20.41 6.83L20.41 6.83L20.42 6.83Q20.33 6.79 20.26 6.78Q20.19 6.76 20.11 6.76L20.11 6.76Q19.80 6.76 19.41 6.98L19.41 6.98Q19.05 7.18 18.85 7.43L18.85 7.43ZM16.58 16.24L16.58 15.58L17.27 15.58L17.27 6.93L16.58 6.93L16.58 6.27L18.85 6.27L18.85 6.53Q19.46 6.13 20.32 6.13L20.32 6.13Q23.19 6.13 23.19 9.64L23.19 9.64Q23.19 13.16 20.39 13.16L20.39 13.16Q19.47 13.16 18.85 12.75L18.85 12.75Q18.85 13.48 18.86 14.16Q18.86 14.84 18.86 15.58L18.86 15.58L19.54 15.58L19.54 16.24L16.58 16.24ZM23.99 13.01L23.99 12.35L24.68 12.35Q24.68 10.15 24.68 8.02Q24.69 5.89 24.69 3.70L24.69 3.70L24.00 3.70L24.00 3.04L26.28 3.04L26.28 6.64Q26.65 6.36 27.03 6.23Q27.42 6.10 27.87 6.10L27.87 6.10Q29.20 6.10 29.91 6.92L29.91 6.92Q30.59 7.70 30.59 9.02L30.59 9.02L30.59 12.35L31.28 12.35L31.28 13.01L28.31 13.01L28.31 12.35L29.00 12.35L29.00 9.06Q29.00 6.78 27.64 6.78L27.64 6.78Q27.30 6.78 26.95 6.98Q26.61 7.17 26.28 7.54L26.28 7.54L26.28 12.35L26.96 12.35L26.96 13.01L23.99 13.01ZM36.37 3.04L43.55 3.04L43.81 4.85L43.07 4.85Q42.91 3.74 42.30 3.74L42.30 3.74L40.82 3.74L40.82 12.30L41.49 12.30L41.49 13.01L38.39 13.01L38.39 12.30L39.10 12.30L39.10 3.74L37.62 3.74Q37.01 3.74 36.85 4.85L36.85 4.85L36.11 4.85L36.37 3.04ZM45.86 8.84L48.79 8.84Q48.74 7.82 48.37 7.30Q48.00 6.79 47.31 6.79L47.31 6.79Q46.54 6.79 46.17 7.49L46.17 7.49Q46.03 7.75 45.95 8.08Q45.88 8.42 45.86 8.84L45.86 8.84ZM50.41 9.50L45.84 9.50Q45.83 9.65 45.84 9.73Q45.84 9.82 45.84 9.86L45.84 9.86Q45.84 12.43 47.69 12.43L47.69 12.43Q48.34 12.43 48.91 12.09L48.91 12.09Q49.18 11.92 49.40 11.65Q49.63 11.38 49.79 11.03L49.79 11.03L50.37 11.39Q50.19 11.85 49.88 12.20Q49.56 12.54 49.14 12.78L49.14 12.78Q48.77 12.97 48.33 13.07Q47.90 13.17 47.43 13.17L47.43 13.17Q46.63 13.17 46.02 12.89Q45.41 12.61 45.00 12.07L45.00 12.07Q44.65 11.59 44.46 10.93Q44.27 10.27 44.27 9.47L44.27 9.47Q44.27 7.98 45.01 7.07L45.01 7.07Q45.82 6.10 47.32 6.10L47.32 6.10Q48.05 6.10 48.61 6.33Q49.16 6.57 49.57 7.04L49.57 7.04Q50.32 7.91 50.41 9.50L50.41 9.50ZM56.11 8.20L56.11 7.83Q55.81 7.28 55.45 7.01Q55.09 6.75 54.66 6.75L54.66 6.75Q53.70 6.75 53.24 7.73L53.24 7.73Q52.89 8.48 52.89 9.67L52.89 9.67Q52.89 10.14 52.99 10.60Q53.08 11.05 53.26 11.45L53.26 11.45Q53.72 12.45 54.48 12.45L54.48 12.45Q55.76 12.45 56.35 10.99L56.35 10.99L56.89 11.34Q56.79 11.76 56.52 12.12Q56.25 12.48 55.87 12.71L55.87 12.71Q55.51 12.93 55.11 13.05Q54.71 13.17 54.31 13.17L54.31 13.17Q53.50 13.17 52.90 12.90Q52.30 12.63 51.93 12.15L51.93 12.15Q51.63 11.71 51.46 11.07Q51.30 10.42 51.30 9.59L51.30 9.59Q51.30 6.10 54.31 6.10L54.31 6.10Q54.58 6.10 55.15 6.26L55.15 6.26Q55.65 6.40 55.92 6.40L55.92 6.40Q56.08 6.40 56.18 6.27L56.18 6.27L56.77 6.27L56.77 8.20L56.11 8.20ZM57.87 13.01L57.87 12.35L58.56 12.35Q58.56 10.15 58.56 8.02Q58.57 5.89 58.57 3.70L58.57 3.70L57.88 3.70L57.88 3.04L60.16 3.04L60.16 6.64Q60.53 6.36 60.91 6.23Q61.30 6.10 61.75 6.10L61.75 6.10Q63.08 6.10 63.79 6.92L63.79 6.92Q64.47 7.70 64.47 9.02L64.47 9.02L64.47 12.35L65.16 12.35L65.16 13.01L62.19 13.01L62.19 12.35L62.88 12.35L62.88 9.06Q62.88 6.78 61.52 6.78L61.52 6.78Q61.17 6.78 60.83 6.98Q60.48 7.17 60.16 7.54L60.16 7.54L60.16 12.35L60.84 12.35L60.84 13.01L57.87 13.01Z"></path></g><defs data-v-fde0c5aa=""><linearGradient data-v-fde0c5aa="" gradientTransform="rotate(25)" id="6a4e5930-ed38-4e17-8da9-d9b9132847db" x1="0%" y1="0%" x2="100%" y2="0%"><stop data-v-fde0c5aa="" offset="0%" stop-color="#4E1A70" stop-opacity="1"></stop><stop data-v-fde0c5aa="" offset="100%" stop-color="#2B4CF2" stop-opacity="1"></stop></linearGradient></defs><g data-v-fde0c5aa="" id="4f824cb3-453b-4b3d-bc36-b040d73f75d8" stroke="none" fill="url(#6a4e5930-ed38-4e17-8da9-d9b9132847db)" transform="matrix(2.3175503281406606,0,0,2.3175503281406606,40,112.91803550602546)"><path d="M12.289 5.343v19.9L1 13.954V5.343h11.289m1-1H0v10.026l13.289 13.289V4.343zM31 5.343v8.612L19.711 25.243v-19.9H31m1-1H18.711v23.315L32 14.369V4.343z"></path></g><defs data-v-fde0c5aa=""><!----></defs><g data-v-fde0c5aa="" id="de999264-73e6-4da7-b894-97f5f2813d2c" fill="#000000" transform="matrix(0.4629527916472429,0,0,0.4629527916472429,127.39939378461338,163.3394564263319)"><path d="M3.64 5.31Q3.49 6.24 2.59 7.18L2.59 7.18Q2.40 7.38 2.16 7.58L2.16 7.58Q2.10 7.63 2.04 7.68L2.04 7.68Q1.82 7.59 1.57 7.58L1.57 7.58Q2.13 4.74 2.27 2.66L2.27 2.66Q2.54 2.80 2.78 2.99L2.78 2.99Q3.29 3.39 3.52 4.03L3.52 4.03Q3.75 4.65 3.64 5.31L3.64 5.31ZM0.66 2.40Q0.66 2.40 0.68 2.39L0.68 2.39Q0.67 2.40 0.66 2.40L0.66 2.40ZM5.60 11.42Q4.87 10.88 3.34 8.99L3.34 8.99Q2.67 8.17 2.55 8.05L2.55 8.05Q3.01 7.84 3.44 7.50L3.44 7.50Q4.64 6.56 5.00 5.41L5.00 5.41Q5.24 4.60 5.04 3.84L5.04 3.84Q4.83 3.07 4.20 2.53L4.20 2.53Q2.96 1.46 0.89 1.88L0.89 1.88Q0.76 1.91 0.56 1.96L0.56 1.96Q-0.18 2.14-0.12 2.37L-0.12 2.37Q-0.05 2.58 0.66 2.40L0.66 2.40Q0.72 2.39 0.77 2.38L0.77 2.38Q0.81 2.37 0.85 2.37L0.85 2.37Q0.73 5.11-0.51 10.79L-0.51 10.79Q-0.56 11.04 0.08 10.92L0.08 10.92Q0.38 10.87 0.64 10.75L0.64 10.75Q0.92 10.62 0.94 10.53L0.94 10.53Q1.23 9.17 1.33 8.72L1.33 8.72Q1.33 8.72 1.33 8.72L1.33 8.72Q1.34 8.72 1.34 8.72L1.34 8.72Q1.45 8.85 2.13 9.70L2.13 9.70Q3.45 11.34 4.22 11.92L4.22 11.92Q4.44 12.09 5.16 11.83L5.16 11.83Q5.35 11.76 5.49 11.67L5.49 11.67Q5.74 11.52 5.60 11.42L5.60 11.42ZM16.69 1.42Q15.98 1.19 14.80 1.57L14.80 1.57Q13.29 2.06 12.73 3.77L12.73 3.77Q12.38 4.83 12.56 6.11L12.56 6.11Q12.65 6.76 12.91 7.16L12.91 7.16Q12.50 7.38 12.20 7.70L12.20 7.70Q11.20 8.80 11.31 10.01L11.31 10.01Q11.38 10.70 11.86 11.11L11.86 11.11Q12.26 11.44 13.08 11.42L13.08 11.42Q13.92 11.39 14.62 10.95L14.62 10.95Q15.37 10.49 15.67 9.76L15.67 9.76Q15.74 9.61 15.46 9.60L15.46 9.60Q15.29 9.59 15.09 9.63L15.09 9.63Q14.34 9.76 14.24 10.02L14.24 10.02Q14.04 10.51 13.69 10.80L13.69 10.80Q13.68 10.81 13.67 10.82L13.67 10.82Q13.62 10.81 13.61 10.81L13.61 10.81Q13.54 10.79 13.46 10.75L13.46 10.75Q13.30 10.68 13.14 10.52L13.14 10.52Q12.85 10.23 12.78 9.63L12.78 9.63Q12.68 8.83 13.31 7.86L13.31 7.86Q13.39 7.74 13.49 7.62L13.49 7.62Q13.71 7.70 13.98 7.72L13.98 7.72Q14.38 7.74 14.88 7.51L14.88 7.51Q15.29 7.32 15.14 7.18L15.14 7.18Q14.85 6.90 14.43 6.84L14.43 6.84Q14.39 6.79 14.36 6.75L14.36 6.75Q14.15 6.45 14.04 5.89L14.04 5.89Q13.85 4.89 14.03 4.00L14.03 4.00Q14.30 2.70 15.07 2.04L15.07 2.04Q15.12 2.00 15.22 1.93L15.22 1.93Q15.22 1.93 15.22 1.93L15.22 1.93Q15.35 1.94 15.33 1.93L15.33 1.93Q15.91 2.02 15.80 2.62L15.80 2.62Q15.75 2.86 16.38 2.75L16.38 2.75Q16.69 2.69 16.94 2.58L16.94 2.58Q17.22 2.45 17.24 2.36L17.24 2.36Q17.38 1.63 16.69 1.42L16.69 1.42ZM27.86 3.48Q27.82 1.70 26.97 1.01L26.97 1.01Q26.50 0.64 25.61 0.68L25.61 0.68Q24.61 0.72 23.36 1.40L23.36 1.40Q23.17 1.50 23.21 1.60L23.21 1.60Q23.24 1.70 23.44 1.71L23.44 1.71Q23.94 1.72 24.47 1.44L24.47 1.44Q24.49 1.43 24.51 1.42L24.51 1.42Q24.55 1.39 24.63 1.35L24.63 1.35Q24.67 1.34 24.75 1.31L24.75 1.31Q24.77 1.29 24.88 1.26L24.88 1.26L24.89 1.26Q24.90 1.25 24.90 1.26L24.90 1.26Q24.90 1.25 24.92 1.25L24.92 1.25Q24.96 1.25 25.00 1.26L25.00 1.26Q25.01 1.26 25.03 1.26L25.03 1.26Q25.07 1.26 25.07 1.26L25.07 1.26Q25.16 1.28 25.26 1.31L25.26 1.31Q25.27 1.31 25.27 1.31L25.27 1.31Q25.27 1.31 25.27 1.31L25.27 1.31Q25.30 1.33 25.35 1.35L25.35 1.35Q25.40 1.37 25.48 1.43L25.48 1.43Q25.61 1.51 25.74 1.65L25.74 1.65Q25.94 1.85 26.10 2.23L26.10 2.23Q26.69 3.66 26.16 6.11L26.16 6.11Q25.81 7.70 25.10 8.97L25.10 8.97Q24.75 9.60 24.34 10.03L24.34 10.03Q24.17 10.22 23.95 10.39L23.95 10.39Q25.04 5.68 25.50 1.78L25.50 1.78Q25.51 1.71 25.29 1.70L25.29 1.70Q25.07 1.69 24.80 1.74L24.80 1.74Q24.08 1.87 24.04 2.17L24.04 2.17Q23.57 6.19 22.39 11.16L22.39 11.16Q22.33 11.42 22.98 11.30L22.98 11.30Q23.28 11.25 23.53 11.12L23.53 11.12Q23.73 11.03 23.79 10.97L23.79 10.97Q24.06 10.93 24.44 10.77L24.44 10.77Q26.00 10.12 26.99 7.78L26.99 7.78Q27.90 5.63 27.86 3.48L27.86 3.48ZM35.79 2.53Q35.55 3.62 34.93 6.79L34.93 6.79Q34.69 8.03 34.50 8.93L34.50 8.93Q34.11 10.78 34.10 10.91L34.10 10.91Q34.10 10.99 34.33 11.00L34.33 11.00Q34.55 11.01 34.83 10.96L34.83 10.96Q35.56 10.81 35.57 10.52L35.57 10.52Q35.57 10.23 35.73 9.62L35.73 9.62Q35.81 9.32 35.96 8.57L35.96 8.57Q36.13 7.77 36.39 6.44L36.39 6.44Q36.99 3.36 37.24 2.27L37.24 2.27Q37.29 2.02 36.65 2.13L36.65 2.13Q36.35 2.19 36.09 2.31L36.09 2.31Q35.81 2.44 35.79 2.53L35.79 2.53ZM49.56 1.59Q48.46 1.45 46.78 1.75L46.78 1.75Q46.79 1.74 46.79 1.70L46.79 1.70Q46.81 1.66 46.81 1.64L46.81 1.64Q46.87 1.39 46.22 1.50L46.22 1.50Q45.92 1.56 45.67 1.67L45.67 1.67Q45.40 1.80 45.37 1.90L45.37 1.90Q45.38 1.88 45.32 2.08L45.32 2.08Q45.13 2.18 45.07 2.30L45.07 2.30Q45.00 2.43 45.22 2.45L45.22 2.45Q43.95 7.25 43.44 10.98L43.44 10.98Q43.43 11.10 43.81 11.07L43.81 11.07Q44.06 11.05 44.24 11.00L44.24 11.00Q44.87 10.83 44.91 10.59L44.91 10.59Q45.12 8.95 45.49 7.16L45.49 7.16Q45.42 7.17 46.48 7.09L46.48 7.09Q47.12 7.05 47.46 6.75L47.46 6.75Q47.61 6.60 47.42 6.54L47.42 6.54Q47.29 6.50 47.11 6.51L47.11 6.51Q45.99 6.60 45.59 6.66L45.59 6.66Q46.01 4.65 46.65 2.24L46.65 2.24Q47.67 2.06 48.36 2.15L48.36 2.15Q48.84 2.21 49.38 1.96L49.38 1.96Q49.52 1.89 49.63 1.78L49.63 1.78Q49.78 1.62 49.56 1.59L49.56 1.59ZM56.23 2.53Q55.99 3.62 55.37 6.79L55.37 6.79Q55.13 8.03 54.94 8.93L54.94 8.93Q54.55 10.78 54.54 10.91L54.54 10.91Q54.54 10.99 54.77 11.00L54.77 11.00Q54.99 11.01 55.27 10.96L55.27 10.96Q56 10.81 56.01 10.52L56.01 10.52Q56.01 10.23 56.17 9.62L56.17 9.62Q56.25 9.32 56.40 8.57L56.40 8.57Q56.57 7.77 56.83 6.44L56.83 6.44Q57.43 3.36 57.67 2.27L57.67 2.27Q57.73 2.02 57.09 2.13L57.09 2.13Q56.79 2.19 56.53 2.31L56.53 2.31Q56.25 2.44 56.23 2.53L56.23 2.53ZM70.29 0.74Q69.98 0.79 69.73 0.91L69.73 0.91Q69.45 1.04 69.43 1.13L69.43 1.13Q68.54 3.96 67.92 7.39L67.92 7.39Q67.84 6.88 67.72 6.21L67.72 6.21Q67.43 4.44 67.38 4.05L67.38 4.05Q67.23 2.77 67.04 2.37L67.04 2.37Q67.04 2.37 67.03 2.35L67.03 2.35L67.03 2.34Q67.03 2.34 67.03 2.33L67.03 2.33Q67.07 2.08 66.45 2.20L66.45 2.20Q66.14 2.26 65.89 2.37L65.89 2.37Q65.60 2.51 65.59 2.60L65.59 2.60Q65.41 3.71 64.76 6.73L64.76 6.73Q64.22 9.34 64.01 10.89L64.01 10.89Q64.00 11.01 64.38 10.98L64.38 10.98Q64.63 10.96 64.80 10.91L64.80 10.91Q65.45 10.74 65.47 10.50L65.47 10.50Q65.67 8.97 66.23 6.38L66.23 6.38Q66.25 6.54 66.26 6.61L66.26 6.61Q66.48 7.90 66.66 8.95L66.66 8.95Q66.92 10.45 67.14 11.09L67.14 11.09Q67.20 11.24 67.54 11.21L67.54 11.21Q67.85 11.18 68.19 11.05L68.19 11.05Q68.78 10.89 68.81 10.65L68.81 10.65Q69.58 5.00 70.87 0.87L70.87 0.87Q70.95 0.62 70.29 0.74L70.29 0.74ZM81.50 1.42Q80.79 1.19 79.61 1.57L79.61 1.57Q78.10 2.06 77.54 3.77L77.54 3.77Q77.19 4.83 77.37 6.11L77.37 6.11Q77.46 6.76 77.72 7.16L77.72 7.16Q77.31 7.38 77.01 7.70L77.01 7.70Q76.02 8.80 76.13 10.01L76.13 10.01Q76.19 10.70 76.67 11.11L76.67 11.11Q77.07 11.44 77.90 11.42L77.90 11.42Q78.73 11.39 79.43 10.95L79.43 10.95Q80.19 10.49 80.49 9.76L80.49 9.76Q80.55 9.61 80.27 9.60L80.27 9.60Q80.10 9.59 79.91 9.63L79.91 9.63Q79.15 9.76 79.05 10.02L79.05 10.02Q78.85 10.51 78.50 10.80L78.50 10.80Q78.49 10.81 78.48 10.82L78.48 10.82Q78.43 10.81 78.42 10.81L78.42 10.81Q78.35 10.79 78.27 10.75L78.27 10.75Q78.11 10.68 77.95 10.52L77.95 10.52Q77.66 10.23 77.59 9.63L77.59 9.63Q77.49 8.83 78.12 7.86L78.12 7.86Q78.20 7.74 78.31 7.62L78.31 7.62Q78.52 7.70 78.79 7.72L78.79 7.72Q79.19 7.74 79.69 7.51L79.69 7.51Q80.10 7.32 79.95 7.18L79.95 7.18Q79.67 6.90 79.24 6.84L79.24 6.84Q79.20 6.79 79.17 6.75L79.17 6.75Q78.96 6.45 78.85 5.89L78.85 5.89Q78.66 4.89 78.85 4.00L78.85 4.00Q79.11 2.70 79.88 2.04L79.88 2.04Q79.93 2.00 80.03 1.93L80.03 1.93Q80.04 1.93 80.04 1.93L80.04 1.93Q80.17 1.94 80.14 1.93L80.14 1.93Q80.73 2.02 80.61 2.62L80.61 2.62Q80.56 2.86 81.19 2.75L81.19 2.75Q81.50 2.69 81.75 2.58L81.75 2.58Q82.03 2.45 82.05 2.36L82.05 2.36Q82.19 1.63 81.50 1.42L81.50 1.42ZM103.71 1.12Q103.67 0.90 102.94 1.07L102.94 1.07Q102.20 1.25 102.25 1.51L102.25 1.51Q102.43 2.73 102.20 4.12L102.20 4.12Q101.94 5.76 101.19 6.75L101.19 6.75Q101.04 6.95 100.78 7.16L100.78 7.16Q100.71 7.23 100.60 7.29L100.60 7.29Q100.61 7.29 100.53 7.34L100.53 7.34L100.52 7.34Q100.52 7.34 100.52 7.34L100.52 7.34Q100.45 7.36 100.38 7.38L100.38 7.38L100.37 7.37Q100.37 7.37 100.36 7.37L100.36 7.37Q100.32 7.36 100.26 7.35L100.26 7.35Q100.25 7.35 100.22 7.33L100.22 7.33Q100.21 7.33 100.19 7.33L100.19 7.33Q99.60 7.06 99.61 5.83L99.61 5.83Q99.61 4.47 100.57 1.59L100.57 1.59Q100.65 1.34 99.98 1.46L99.98 1.46Q99.21 1.60 99.13 1.85L99.13 1.85Q98.26 4.44 98.16 5.87L98.16 5.87Q98.06 7.12 98.57 7.65L98.57 7.65Q98.85 7.94 99.46 7.96L99.46 7.96Q99.60 7.97 99.76 7.96L99.76 7.96Q99.70 8.59 99.18 10.68L99.18 10.68Q99.11 10.94 99.76 10.82L99.76 10.82Q100.06 10.77 100.32 10.65L100.32 10.65Q100.60 10.52 100.62 10.42L100.62 10.42Q101.16 8.28 101.22 7.59L101.22 7.59Q101.26 7.57 101.27 7.57L101.27 7.57Q102.85 6.90 103.47 4.67L103.47 4.67Q103.97 2.84 103.71 1.12L103.71 1.12ZM113.39 5.20Q113.26 6.64 113.00 7.92L113.00 7.92Q112.59 9.88 111.82 10.64L111.82 10.64Q111.73 10.55 111.65 10.38L111.65 10.38Q111.47 9.97 111.48 9.03L111.48 9.03Q111.51 7.34 112.08 5.48L112.08 5.48Q112.58 3.85 113.28 3.01L113.28 3.01Q113.35 3.25 113.40 3.62L113.40 3.62Q113.47 4.21 113.39 5.20L113.39 5.20ZM114.32 1.96Q114.11 1.79 113.37 2.05L113.37 2.05Q112.88 2.24 112.90 2.39L112.90 2.39Q112.64 2.48 112.46 2.63L112.46 2.63Q111.48 3.40 110.82 5.22L110.82 5.22Q110.27 6.70 110.08 8.50L110.08 8.50Q110.00 9.28 110.02 9.92L110.02 9.92Q110.07 10.77 110.43 11.13L110.43 11.13Q110.61 11.31 111.04 11.33L111.04 11.33Q111.58 11.36 112.41 11.02L112.41 11.02Q113.09 10.74 113.61 9.94L113.61 9.94Q114.08 9.21 114.40 7.85L114.40 7.85Q114.61 6.94 114.73 5.84L114.73 5.84Q114.90 4.44 114.90 3.78L114.90 3.78Q114.88 2.45 114.32 1.96L114.32 1.96ZM126.21 2.21Q125.58 2.38 125.54 2.63L125.54 2.63Q125.49 3.01 125.33 4.51L125.33 4.51Q125.21 5.69 125.07 6.41L125.07 6.41Q124.67 8.57 123.57 9.83L123.57 9.83Q123.42 10.00 123.31 10.12L123.31 10.12Q123.05 9.61 123.01 8.40L123.01 8.40Q122.95 6.90 123.87 4.58L123.87 4.58Q124.56 2.88 124.72 2.40L124.72 2.40Q124.81 2.15 124.14 2.26L124.14 2.26Q123.37 2.41 123.28 2.66L123.28 2.66Q123.12 3.12 122.56 4.53L122.56 4.53Q122.10 5.71 121.88 6.43L121.88 6.43Q121.22 8.66 121.79 10.36L121.79 10.36Q121.89 10.68 122.09 10.83L122.09 10.83Q122.32 11.03 122.96 10.92L122.96 10.92Q123.98 10.73 124.89 9.71L124.89 9.71Q126.05 8.41 126.49 6.34L126.49 6.34Q126.64 5.55 126.78 4.29L126.78 4.29Q126.96 2.58 127.00 2.24L127.00 2.24Q127.02 2.11 126.64 2.14L126.64 2.14Q126.38 2.16 126.21 2.21L126.21 2.21ZM137.44 5.31Q137.29 6.24 136.40 7.18L136.40 7.18Q136.21 7.38 135.97 7.58L135.97 7.58Q135.91 7.63 135.84 7.68L135.84 7.68Q135.63 7.59 135.37 7.58L135.37 7.58Q135.93 4.74 136.08 2.66L136.08 2.66Q136.34 2.80 136.58 2.99L136.58 2.99Q137.09 3.39 137.33 4.03L137.33 4.03Q137.55 4.65 137.44 5.31L137.44 5.31ZM134.47 2.40Q134.47 2.40 134.48 2.39L134.48 2.39Q134.48 2.40 134.47 2.40L134.47 2.40ZM139.41 11.42Q138.67 10.88 137.14 8.99L137.14 8.99Q136.47 8.17 136.36 8.05L136.36 8.05Q136.81 7.84 137.25 7.50L137.25 7.50Q138.45 6.56 138.80 5.41L138.80 5.41Q139.05 4.60 138.84 3.84L138.84 3.84Q138.63 3.07 138.01 2.53L138.01 2.53Q136.77 1.46 134.70 1.88L134.70 1.88Q134.57 1.91 134.37 1.96L134.37 1.96Q133.63 2.14 133.69 2.37L133.69 2.37Q133.75 2.58 134.46 2.40L134.46 2.40Q134.53 2.39 134.58 2.38L134.58 2.38Q134.62 2.37 134.65 2.37L134.65 2.37Q134.54 5.11 133.30 10.79L133.30 10.79Q133.25 11.04 133.88 10.92L133.88 10.92Q134.19 10.87 134.44 10.75L134.44 10.75Q134.72 10.62 134.74 10.53L134.74 10.53Q135.04 9.17 135.13 8.72L135.13 8.72Q135.14 8.72 135.14 8.72L135.14 8.72Q135.15 8.72 135.15 8.72L135.15 8.72Q135.26 8.85 135.94 9.70L135.94 9.70Q137.26 11.34 138.02 11.92L138.02 11.92Q138.25 12.09 138.97 11.83L138.97 11.83Q139.15 11.76 139.30 11.67L139.30 11.67Q139.54 11.52 139.41 11.42L139.41 11.42ZM161.77 2.63Q161.48 1.84 160.77 1.42L160.77 1.42Q160.11 1.03 159.22 1.02L159.22 1.02Q158.21 1.00 156.95 1.39L156.95 1.39Q156.23 1.61 156.28 1.80L156.28 1.80Q156.34 2.04 157.07 1.83L157.07 1.83Q157.26 1.76 157.45 1.72L157.45 1.72Q157.46 1.72 157.51 1.70L157.51 1.70Q157.56 1.69 157.58 1.69L157.58 1.69Q157.64 1.67 157.71 1.66L157.71 1.66Q157.77 1.65 157.88 1.63L157.88 1.63Q157.88 1.63 157.98 1.62L157.98 1.62Q158.05 1.61 158.18 1.61L158.18 1.61Q158.18 1.61 158.27 1.61L158.27 1.61Q159.00 1.61 159.56 2.00L159.56 2.00Q160.17 2.43 160.39 3.27L160.39 3.27Q160.58 3.98 160.47 4.81L160.47 4.81Q160.22 6.56 159.03 7.40L159.03 7.40Q158.99 7.42 158.93 7.46L158.93 7.46Q158.94 7.46 158.92 7.46L158.92 7.46Q158.91 7.47 158.89 7.48L158.89 7.48Q158.83 7.48 158.83 7.49L158.83 7.49Q158.73 7.49 158.65 7.47L158.65 7.47Q157.97 7.36 157.90 6.66L157.90 6.66Q157.89 6.60 157.79 6.58L157.79 6.58Q157.80 6.55 157.81 6.49L157.81 6.49Q157.82 6.44 157.83 6.42L157.83 6.42Q158.37 3.25 158.69 2.24L158.69 2.24Q158.77 1.98 158.11 2.10L158.11 2.10Q157.80 2.15 157.55 2.27L157.55 2.27Q157.28 2.40 157.25 2.50L157.25 2.50Q156.93 3.51 156.37 6.77L156.37 6.77Q156.13 8.13 155.91 8.89L155.91 8.89Q155.46 10.44 155.42 10.94L155.42 10.94Q155.42 11.01 155.64 11.02L155.64 11.02Q155.85 11.03 156.13 10.98L156.13 10.98Q156.86 10.84 156.88 10.55L156.88 10.55Q156.92 10.13 157.38 8.54L157.38 8.54Q157.45 8.31 157.51 8.03L157.51 8.03Q158.15 8.13 159.00 7.92L159.00 7.92Q160.71 7.52 161.54 5.75L161.54 5.75Q162.32 4.09 161.77 2.63L161.77 2.63ZM172.20 5.31Q172.05 6.24 171.15 7.18L171.15 7.18Q170.96 7.38 170.72 7.58L170.72 7.58Q170.66 7.63 170.60 7.68L170.60 7.68Q170.38 7.59 170.13 7.58L170.13 7.58Q170.69 4.74 170.83 2.66L170.83 2.66Q171.10 2.80 171.34 2.99L171.34 2.99Q171.85 3.39 172.08 4.03L172.08 4.03Q172.31 4.65 172.20 5.31L172.20 5.31ZM169.22 2.40Q169.22 2.40 169.24 2.39L169.24 2.39Q169.23 2.40 169.22 2.40L169.22 2.40ZM174.16 11.42Q173.43 10.88 171.90 8.99L171.90 8.99Q171.23 8.17 171.11 8.05L171.11 8.05Q171.57 7.84 172.00 7.50L172.00 7.50Q173.20 6.56 173.56 5.41L173.56 5.41Q173.80 4.60 173.60 3.84L173.60 3.84Q173.39 3.07 172.76 2.53L172.76 2.53Q171.52 1.46 169.45 1.88L169.45 1.88Q169.32 1.91 169.12 1.96L169.12 1.96Q168.38 2.14 168.44 2.37L168.44 2.37Q168.51 2.58 169.22 2.40L169.22 2.40Q169.29 2.39 169.33 2.38L169.33 2.38Q169.37 2.37 169.41 2.37L169.41 2.37Q169.29 5.11 168.05 10.79L168.05 10.79Q168 11.04 168.64 10.92L168.64 10.92Q168.94 10.87 169.20 10.75L169.20 10.75Q169.48 10.62 169.50 10.53L169.50 10.53Q169.79 9.17 169.89 8.72L169.89 8.72Q169.89 8.72 169.89 8.72L169.89 8.72Q169.90 8.72 169.90 8.72L169.90 8.72Q170.01 8.85 170.69 9.70L170.69 9.70Q172.01 11.34 172.78 11.92L172.78 11.92Q173.00 12.09 173.72 11.83L173.72 11.83Q173.91 11.76 174.05 11.67L174.05 11.67Q174.30 11.52 174.16 11.42L174.16 11.42ZM183.78 5.20Q183.66 6.64 183.39 7.92L183.39 7.92Q182.98 9.88 182.21 10.64L182.21 10.64Q182.12 10.55 182.05 10.38L182.05 10.38Q181.86 9.97 181.88 9.03L181.88 9.03Q181.90 7.34 182.48 5.48L182.48 5.48Q182.98 3.85 183.67 3.01L183.67 3.01Q183.75 3.25 183.80 3.62L183.80 3.62Q183.87 4.21 183.78 5.20L183.78 5.20ZM184.71 1.96Q184.51 1.79 183.77 2.05L183.77 2.05Q183.27 2.24 183.29 2.39L183.29 2.39Q183.04 2.48 182.86 2.63L182.86 2.63Q181.88 3.40 181.21 5.22L181.21 5.22Q180.67 6.70 180.48 8.50L180.48 8.50Q180.39 9.28 180.42 9.92L180.42 9.92Q180.46 10.77 180.82 11.13L180.82 11.13Q181.01 11.31 181.44 11.33L181.44 11.33Q181.98 11.36 182.81 11.02L182.81 11.02Q183.49 10.74 184.01 9.94L184.01 9.94Q184.48 9.21 184.80 7.85L184.80 7.85Q185.01 6.94 185.13 5.84L185.13 5.84Q185.29 4.44 185.29 3.78L185.29 3.78Q185.28 2.45 184.71 1.96L184.71 1.96ZM193.53 0.96Q193.46 2.90 193.07 5.58L193.07 5.58Q192.61 8.59 192.41 9.82L192.41 9.82Q192.10 11.07 191.80 11.91L191.80 11.91Q191.56 12.60 191.28 13.11L191.28 13.11Q191.17 13.30 191.05 13.46L191.05 13.46Q191.01 13.38 190.97 13.29L190.97 13.29Q190.69 12.62 190.91 12.00L190.91 12.00Q191.01 11.75 190.33 11.87L190.33 11.87Q189.57 12.01 189.48 12.26L189.48 12.26Q189.26 12.86 189.48 13.58L189.48 13.58Q189.68 14.25 190.39 14.26L190.39 14.26Q191.35 14.27 192.07 13.68L192.07 13.68Q192.41 13.40 192.75 12.76L192.75 12.76Q193.22 11.91 193.64 10.35L193.64 10.35Q193.80 9.79 194.05 8.12L194.05 8.12Q194.90 3.05 194.99 0.57L194.99 0.57Q194.99 0.49 194.76 0.48L194.76 0.48Q194.55 0.47 194.27 0.53L194.27 0.53Q193.54 0.67 193.53 0.96L193.53 0.96ZM206.60 1.42Q205.89 1.19 204.71 1.57L204.71 1.57Q203.20 2.06 202.64 3.77L202.64 3.77Q202.29 4.83 202.47 6.11L202.47 6.11Q202.56 6.76 202.82 7.16L202.82 7.16Q202.41 7.38 202.11 7.70L202.11 7.70Q201.11 8.80 201.22 10.01L201.22 10.01Q201.29 10.70 201.77 11.11L201.77 11.11Q202.17 11.44 202.99 11.42L202.99 11.42Q203.83 11.39 204.53 10.95L204.53 10.95Q205.28 10.49 205.58 9.76L205.58 9.76Q205.65 9.61 205.37 9.60L205.37 9.60Q205.19 9.59 205.00 9.63L205.00 9.63Q204.25 9.76 204.15 10.02L204.15 10.02Q203.95 10.51 203.60 10.80L203.60 10.80Q203.59 10.81 203.57 10.82L203.57 10.82Q203.53 10.81 203.52 10.81L203.52 10.81Q203.45 10.79 203.37 10.75L203.37 10.75Q203.21 10.68 203.05 10.52L203.05 10.52Q202.76 10.23 202.69 9.63L202.69 9.63Q202.59 8.83 203.22 7.86L203.22 7.86Q203.30 7.74 203.40 7.62L203.40 7.62Q203.62 7.70 203.89 7.72L203.89 7.72Q204.29 7.74 204.78 7.51L204.78 7.51Q205.20 7.32 205.05 7.18L205.05 7.18Q204.76 6.90 204.34 6.84L204.34 6.84Q204.30 6.79 204.26 6.75L204.26 6.75Q204.06 6.45 203.95 5.89L203.95 5.89Q203.76 4.89 203.94 4.00L203.94 4.00Q204.21 2.70 204.98 2.04L204.98 2.04Q205.03 2.00 205.13 1.93L205.13 1.93Q205.13 1.93 205.13 1.93L205.13 1.93Q205.26 1.94 205.24 1.93L205.24 1.93Q205.82 2.02 205.71 2.62L205.71 2.62Q205.66 2.86 206.29 2.75L206.29 2.75Q206.60 2.69 206.85 2.58L206.85 2.58Q207.13 2.45 207.15 2.36L207.15 2.36Q207.29 1.63 206.60 1.42L206.60 1.42ZM218.08 1.54Q217.65 0.91 216.47 1.20L216.47 1.20Q215.51 1.43 214.87 2.14L214.87 2.14Q213.86 3.26 213.42 5.40L213.42 5.40Q213.13 6.86 213.04 8.67L213.04 8.67Q213.02 9.98 213.16 10.47L213.16 10.47Q213.43 11.44 214.52 11.50L214.52 11.50Q215.14 11.53 215.73 11.27L215.73 11.27Q216.32 10.99 216.69 10.51L216.69 10.51Q217.07 10.02 217.40 8.89L217.40 8.89Q217.48 8.64 216.82 8.76L216.82 8.76Q216.52 8.81 216.27 8.93L216.27 8.93Q216.00 9.06 215.97 9.15L215.97 9.15Q215.72 9.99 215.45 10.48L215.45 10.48Q215.33 10.68 215.20 10.83L215.20 10.83Q214.63 10.58 214.51 9.66L214.51 9.66Q214.48 9.42 214.50 8.20L214.50 8.20Q214.59 6.41 214.91 4.92L214.91 4.92Q215.37 2.75 216.41 1.80L216.41 1.80Q216.42 1.79 216.45 1.76L216.45 1.76Q216.81 2.01 216.90 2.75L216.90 2.75Q216.98 3.36 216.77 4.29L216.77 4.29Q216.43 5.76 216.43 5.80L216.43 5.80Q216.41 5.92 216.79 5.89L216.79 5.89Q217.05 5.87 217.21 5.82L217.21 5.82Q217.85 5.65 217.89 5.41L217.89 5.41Q217.94 5.07 218.09 4.41L218.09 4.41Q218.26 3.74 218.31 3.40L218.31 3.40Q218.50 2.17 218.08 1.54L218.08 1.54ZM229.77 2.35Q228.81 2.17 227.81 2.15L227.81 2.15Q227.71 2.03 227.23 2.11L227.23 2.11Q227.14 2.13 227.02 2.16L227.02 2.16Q225.96 2.22 224.92 2.46L224.92 2.46Q224.18 2.63 224.25 2.88L224.25 2.88Q224.29 3.08 225.02 2.91L225.02 2.91Q225.03 2.91 225.04 2.90L225.04 2.90Q225.05 2.90 225.07 2.89L225.07 2.89Q225.14 2.88 225.30 2.85L225.30 2.85Q225.46 2.82 225.69 2.80L225.69 2.80Q225.98 2.76 226.30 2.75L226.30 2.75Q224.89 7.40 224.49 10.96L224.49 10.96Q224.49 11.02 224.71 11.03L224.71 11.03Q224.92 11.04 225.20 10.99L225.20 10.99Q225.93 10.86 225.96 10.56L225.96 10.56Q226.33 7.19 227.65 2.78L227.65 2.78Q228.12 2.82 228.56 2.91L228.56 2.91Q229.00 2.99 229.58 2.72L229.58 2.72Q229.74 2.65 229.84 2.54L229.84 2.54Q229.98 2.39 229.77 2.35L229.77 2.35ZM250.74 1.31Q250.43 1.36 250.17 1.48L250.17 1.48Q249.89 1.61 249.87 1.70L249.87 1.70Q249.68 2.55 249.22 4.25L249.22 4.25Q248.77 5.94 248.58 6.80L248.58 6.80Q247.93 6.88 247.25 7.03L247.25 7.03Q247.45 6.04 247.86 4.31L247.86 4.31Q248.33 2.37 248.49 1.59L248.49 1.59Q248.55 1.34 247.91 1.46L247.91 1.46Q247.61 1.51 247.36 1.63L247.36 1.63Q247.08 1.76 247.06 1.85L247.06 1.85Q246.89 2.61 246.41 4.64L246.41 4.64Q245.99 6.41 245.78 7.44L245.78 7.44Q245.64 7.49 245.61 7.50L245.61 7.50Q245.45 7.55 245.29 7.66L245.29 7.66Q245.03 7.82 245.17 7.91L245.17 7.91Q245.34 8.01 245.68 7.94L245.68 7.94Q245.36 9.65 245.23 11.08L245.23 11.08Q245.23 11.15 245.45 11.16L245.45 11.16Q245.66 11.17 245.94 11.12L245.94 11.12Q246.67 10.98 246.69 10.69L246.69 10.69Q246.81 9.26 247.15 7.53L247.15 7.53Q247.35 7.49 247.70 7.42L247.70 7.42Q248.08 7.36 248.45 7.33L248.45 7.33Q247.99 9.44 247.90 11.13L247.90 11.13Q247.90 11.20 248.12 11.21L248.12 11.21Q248.34 11.22 248.62 11.17L248.62 11.17Q249.35 11.03 249.36 10.74L249.36 10.74Q249.44 9.17 249.85 7.25L249.85 7.25Q250.19 7.18 250.45 7.02L250.45 7.02Q250.63 6.91 250.60 6.82L250.60 6.82Q250.57 6.72 250.37 6.71L250.37 6.71Q250.20 6.71 249.97 6.71L249.97 6.71Q250.18 5.79 250.64 4.07L250.64 4.07Q251.12 2.28 251.32 1.44L251.32 1.44Q251.37 1.19 250.74 1.31L250.74 1.31ZM262.54 1.42Q261.83 1.19 260.65 1.57L260.65 1.57Q259.14 2.06 258.58 3.77L258.58 3.77Q258.23 4.83 258.41 6.11L258.41 6.11Q258.49 6.76 258.76 7.16L258.76 7.16Q258.34 7.38 258.05 7.70L258.05 7.70Q257.05 8.80 257.16 10.01L257.16 10.01Q257.23 10.70 257.71 11.11L257.71 11.11Q258.10 11.44 258.93 11.42L258.93 11.42Q259.77 11.39 260.47 10.95L260.47 10.95Q261.22 10.49 261.52 9.76L261.52 9.76Q261.58 9.61 261.30 9.60L261.30 9.60Q261.13 9.59 260.94 9.63L260.94 9.63Q260.19 9.76 260.09 10.02L260.09 10.02Q259.89 10.51 259.54 10.80L259.54 10.80Q259.53 10.81 259.51 10.82L259.51 10.82Q259.46 10.81 259.46 10.81L259.46 10.81Q259.39 10.79 259.31 10.75L259.31 10.75Q259.14 10.68 258.99 10.52L258.99 10.52Q258.70 10.23 258.62 9.63L258.62 9.63Q258.53 8.83 259.16 7.86L259.16 7.86Q259.24 7.74 259.34 7.62L259.34 7.62Q259.55 7.70 259.83 7.72L259.83 7.72Q260.23 7.74 260.72 7.51L260.72 7.51Q261.14 7.32 260.99 7.18L260.99 7.18Q260.70 6.90 260.28 6.84L260.28 6.84Q260.24 6.79 260.20 6.75L260.20 6.75Q260.00 6.45 259.89 5.89L259.89 5.89Q259.70 4.89 259.88 4.00L259.88 4.00Q260.15 2.70 260.91 2.04L260.91 2.04Q260.97 2.00 261.06 1.93L261.06 1.93Q261.07 1.93 261.07 1.93L261.07 1.93Q261.20 1.94 261.18 1.93L261.18 1.93Q261.76 2.02 261.65 2.62L261.65 2.62Q261.60 2.86 262.23 2.75L262.23 2.75Q262.53 2.69 262.79 2.58L262.79 2.58Q263.07 2.45 263.09 2.36L263.09 2.36Q263.22 1.63 262.54 1.42L262.54 1.42ZM272.79 5.31Q272.64 6.24 271.75 7.18L271.75 7.18Q271.56 7.38 271.32 7.58L271.32 7.58Q271.26 7.63 271.20 7.68L271.20 7.68Q270.98 7.59 270.72 7.58L270.72 7.58Q271.28 4.74 271.43 2.66L271.43 2.66Q271.69 2.80 271.93 2.99L271.93 2.99Q272.45 3.39 272.68 4.03L272.68 4.03Q272.90 4.65 272.79 5.31L272.79 5.31ZM269.82 2.40Q269.82 2.40 269.83 2.39L269.83 2.39Q269.83 2.40 269.82 2.40L269.82 2.40ZM274.76 11.42Q274.03 10.88 272.49 8.99L272.49 8.99Q271.82 8.17 271.71 8.05L271.71 8.05Q272.17 7.84 272.60 7.50L272.60 7.50Q273.80 6.56 274.16 5.41L274.16 5.41Q274.40 4.60 274.20 3.84L274.20 3.84Q273.98 3.07 273.36 2.53L273.36 2.53Q272.12 1.46 270.05 1.88L270.05 1.88Q269.92 1.91 269.72 1.96L269.72 1.96Q268.98 2.14 269.04 2.37L269.04 2.37Q269.10 2.58 269.81 2.40L269.81 2.40Q269.88 2.39 269.93 2.38L269.93 2.38Q269.97 2.37 270.01 2.37L270.01 2.37Q269.89 5.11 268.65 10.79L268.65 10.79Q268.60 11.04 269.23 10.92L269.23 10.92Q269.54 10.87 269.79 10.75L269.79 10.75Q270.07 10.62 270.09 10.53L270.09 10.53Q270.39 9.17 270.48 8.72L270.48 8.72Q270.49 8.72 270.49 8.72L270.49 8.72Q270.50 8.72 270.50 8.72L270.50 8.72Q270.61 8.85 271.29 9.70L271.29 9.70Q272.61 11.34 273.38 11.92L273.38 11.92Q273.60 12.09 274.32 11.83L274.32 11.83Q274.50 11.76 274.65 11.67L274.65 11.67Q274.89 11.52 274.76 11.42L274.76 11.42ZM285.85 1.42Q285.14 1.19 283.96 1.57L283.96 1.57Q282.45 2.06 281.89 3.77L281.89 3.77Q281.54 4.83 281.72 6.11L281.72 6.11Q281.80 6.76 282.07 7.16L282.07 7.16Q281.65 7.38 281.36 7.70L281.36 7.70Q280.36 8.80 280.47 10.01L280.47 10.01Q280.54 10.70 281.02 11.11L281.02 11.11Q281.42 11.44 282.24 11.42L282.24 11.42Q283.08 11.39 283.78 10.95L283.78 10.95Q284.53 10.49 284.83 9.76L284.83 9.76Q284.89 9.61 284.61 9.60L284.61 9.60Q284.44 9.59 284.25 9.63L284.25 9.63Q283.50 9.76 283.40 10.02L283.40 10.02Q283.20 10.51 282.85 10.80L282.85 10.80Q282.84 10.81 282.82 10.82L282.82 10.82Q282.78 10.81 282.77 10.81L282.77 10.81Q282.70 10.79 282.62 10.75L282.62 10.75Q282.45 10.68 282.30 10.52L282.30 10.52Q282.01 10.23 281.93 9.63L281.93 9.63Q281.84 8.83 282.47 7.86L282.47 7.86Q282.55 7.74 282.65 7.62L282.65 7.62Q282.86 7.70 283.14 7.72L283.14 7.72Q283.54 7.74 284.03 7.51L284.03 7.51Q284.45 7.32 284.30 7.18L284.30 7.18Q284.01 6.90 283.59 6.84L283.59 6.84Q283.55 6.79 283.51 6.75L283.51 6.75Q283.31 6.45 283.20 5.89L283.20 5.89Q283.01 4.89 283.19 4.00L283.19 4.00Q283.46 2.70 284.22 2.04L284.22 2.04Q284.28 2.00 284.38 1.93L284.38 1.93Q284.38 1.93 284.38 1.93L284.38 1.93Q284.51 1.94 284.49 1.93L284.49 1.93Q285.07 2.02 284.96 2.62L284.96 2.62Q284.91 2.86 285.54 2.75L285.54 2.75Q285.84 2.69 286.10 2.58L286.10 2.58Q286.38 2.45 286.40 2.36L286.40 2.36Q286.54 1.63 285.85 1.42L285.85 1.42Z"></path></g></svg>